<svg xmlns="http://www.w3.org/2000/svg" width="13.399" height="13.398" viewBox="0 0 13.399 13.398">
	<path d="M-10-15.3A6.7,6.7,0,0,1-3.3-22a6.7,6.7,0,0,1,6.7,6.7A6.7,6.7,0,0,1-3.3-8.6,6.706,6.706,0,0,1-10-15.3Zm.7,0a6,6,0,0,0,6,6,6,6,0,0,0,6-6,6,6,0,0,0-6-6A6.007,6.007,0,0,0-9.3-15.3ZM-3.534-12.2h0a.35.35,0,0,1-.1-.248l0-2.495-2.5,0a.351.351,0,0,1-.246-.1l0,0a.349.349,0,0,1-.076-.382.351.351,0,0,1,.324-.218l2.495,0,0-2.5a.351.351,0,0,1,.351-.338.351.351,0,0,1,.35.338l0,2.5,2.495,0a.35.35,0,0,1,.339.35.351.351,0,0,1-.339.351l-2.5,0,0,2.495a.351.351,0,0,1-.216.325.351.351,0,0,1-.135.027A.348.348,0,0,1-3.534-12.2Z" transform="translate(10 22)" />
</svg>
