<svg xmlns="http://www.w3.org/2000/svg" width="14.195" height="19.578" viewBox="0 0 14.195 19.578">
	<path d="M39.063,0h2.588a1.067,1.067,0,0,1,1.067,1.067V2.36H38V1.067A1.067,1.067,0,0,1,39.063,0Z" transform="translate(-33.259)" fill="#F44336" />
	<path d="M6.11,32.92V44.667A3.723,3.723,0,0,0,9.833,48.39h5.226a3.723,3.723,0,0,0,3.723-3.723V32.92Zm4.563,12.4a.374.374,0,0,1-.749,0v-9.34a.374.374,0,1,1,.749,0Zm4.294,0a.374.374,0,1,1-.749,0v-9.34a.374.374,0,0,1,.749,0Z" transform="translate(-5.348 -28.813)" fill="#F44336" />
	<path d="M13.821,16.669H.374a.374.374,0,0,1,0-.749H13.821a.374.374,0,0,1,0,.749Z" transform="translate(0 -13.934)" fill="#F44336" />
</svg>
